<svg width="27" height="29" viewBox="0 0 27 29" fill="none" xmlns="http://www.w3.org/2000/svg">
<path d="M1 7C0.447715 7 -4.82823e-08 7.44772 0 8C4.82823e-08 8.55229 0.447715 9 1 9L1 7ZM26.7071 8.70711C27.0976 8.31658 27.0976 7.68342 26.7071 7.29289L20.3431 0.928933C19.9526 0.538408 19.3195 0.538408 18.9289 0.928933C18.5384 1.31946 18.5384 1.95262 18.9289 2.34315L24.5858 8L18.9289 13.6569C18.5384 14.0474 18.5384 14.6805 18.9289 15.0711C19.3195 15.4616 19.9526 15.4616 20.3431 15.0711L26.7071 8.70711ZM26 22C26.5523 22 27 21.5523 27 21C27 20.4477 26.5523 20 26 20V22ZM0.292893 20.2929C-0.0976311 20.6834 -0.0976311 21.3166 0.292893 21.7071L6.65685 28.0711C7.04738 28.4616 7.68054 28.4616 8.07107 28.0711C8.46159 27.6805 8.46159 27.0474 8.07107 26.6569L2.41421 21L8.07107 15.3431C8.46159 14.9526 8.46159 14.3195 8.07107 13.9289C7.68054 13.5384 7.04738 13.5384 6.65685 13.9289L0.292893 20.2929ZM1 9L26 9L26 7L1 7L1 9ZM26 20H1V22H26V20Z" fill="#746683"/>
</svg>
