<svg width="207" height="77" viewBox="0 0 207 77" fill="none" xmlns="http://www.w3.org/2000/svg">
<g clip-path="url(#clip0_1029_2296)">
<path d="M105.389 0.853264C93.7832 0.779707 84.7742 3.5896 75.6232 10.401C72.6202 3.41797 66.5261 0.706149 56.5276 0.583553C46.0343 0.460957 35.8888 6.00719 28.6288 12.1076C29.9515 8.85142 31.5436 4.72239 33.4394 1.76047C24.7783 1.65259 16.2739 1.46134 7.26988 1.11807C6.88287 2.13807 6.53505 3.66316 6.18234 4.69297C7.61769 6.15921 8.50438 7.6745 8.50438 9.88613C8.50438 13.6523 5.9423 15.3343 2.47392 16.2562C2.18979 17.6244 1.93015 20.4686 1.69501 21.8466C3.73292 23.3226 5.06051 25.7157 5.06051 28.4226C5.06051 31.7719 3.03729 33.6599 0.146981 34.9055C0.0881949 36.0873 0.0245102 38.2548 -0.00488281 39.4366C2.96381 40.643 5.05561 43.5559 5.05561 46.9591C5.05561 50.1613 3.19895 52.9271 0.509494 54.2462C0.636864 55.6242 0.774031 57.4876 0.94549 58.8558C4.75188 59.5276 7.64219 62.3522 7.64219 66.3538C7.64219 69.3304 6.03537 71.439 3.64474 72.8514C3.93378 74.0724 4.2326 75.7789 4.55103 76.9853C13.8882 75.8329 23.7055 74.9943 32.6311 74.3323C25.8413 63.1516 23.0735 53.5008 23.8573 39.5739C24.4305 31.1541 29.5449 26.7112 36.0456 26.5641C42.6639 26.412 46.1372 30.5754 46.4948 38.9904C47.1855 55.2417 50.6147 65.0199 55.5184 73.0769C64.6009 72.6748 65.0418 72.41 74.4181 72.2629C71.1457 62.2051 68.5444 51.6913 69.8083 38.0685C70.7783 27.6478 79.797 21.4886 87.3657 21.4984C94.9834 21.5131 102.243 26.8926 103.062 35.6411C104.517 51.2156 100.259 60.0818 96.5706 72.1354C106.04 72.1746 110.606 72.3316 119.928 72.6013C129.912 63.4066 135.364 43.6196 134.674 27.0888C133.434 9.23882 121.79 0.980764 105.369 0.833649L105.389 0.853264Z" fill="white"/>
<path d="M161.03 1.25846C140.322 0.802401 129.76 15.6365 126.674 38.2334C126.669 38.3265 126.659 38.4197 126.654 38.5129C125.126 62.5907 141.135 74.4727 164.444 76.5863C179.768 78.1359 194.685 75.1004 203.522 66.5824C199.329 62.0856 195.238 57.7555 190.834 53.4009C184.867 58.3489 178.92 60.1584 172.214 59.7318C163.317 59.1384 157.542 54.98 156.038 46.7268C175.212 47.6634 192.901 48.6932 206.99 49.6054C207.049 47.737 206.941 45.7068 206.834 43.9659C207.025 20.555 187.591 0.856343 161.03 1.25846ZM158.164 32.1869C159.545 25.2725 165.938 20.9228 173.002 21.1582C180.272 21.3936 187.655 26.8516 189.315 34.0896C180.831 33.7316 167.79 32.54 158.164 32.182V32.1869Z" fill="white"/>
</g>
<defs>
<clipPath id="clip0_1029_2296">
<rect width="207" height="77" fill="white"/>
</clipPath>
</defs>
</svg>
