<svg width="28" height="28" viewBox="0 0 28 28" fill="none" xmlns="http://www.w3.org/2000/svg">
<path d="M13.2479 6.09042C13.4377 6.30713 13.7119 6.43141 14 6.43141C14.2881 6.43141 14.5623 6.30713 14.7521 6.09042C15.6203 5.09961 17.0853 4 19.3444 4C23.2384 4 26 7.64681 26 11.19C26 12.9216 25.3085 14.636 24.1782 16.2743C23.0489 17.911 21.5211 19.4135 19.9529 20.6984C18.3887 21.9801 16.8128 23.0223 15.6133 23.7438C15.0142 24.1041 14.5134 24.3819 14.1602 24.5673C14.1023 24.5977 14.0488 24.6253 14 24.6502C13.9512 24.6253 13.8977 24.5977 13.8398 24.5673C13.4866 24.3819 12.9858 24.1041 12.3867 23.7438C11.1872 23.0223 9.61128 21.9801 8.04713 20.6984C6.47895 19.4135 4.95109 17.911 3.82185 16.2743C2.69148 14.636 2 12.9216 2 11.19C2 7.64681 4.76156 4 8.65556 4C10.9147 4 12.3797 5.09961 13.2479 6.09042Z" stroke="white" stroke-width="2" stroke-linecap="round" stroke-linejoin="round"/>
</svg>
