<svg width="37" height="27" viewBox="0 0 37 27" fill="none" xmlns="http://www.w3.org/2000/svg">
<path d="M36.1299 20L35.6299 15.57H34.7199C33.6116 15.5727 32.5413 15.1664 31.7141 14.4288C30.8868 13.6912 30.3609 12.6743 30.237 11.573C30.1131 10.4716 30.4 9.3633 31.0427 8.46039C31.6854 7.55747 32.6387 6.9235 33.7199 6.67996L34.5899 6.47996L34.1399 2.47996C34.1119 2.21721 34.0321 1.96262 33.905 1.73091C33.778 1.49919 33.6064 1.29494 33.3999 1.12996C32.9968 0.809329 32.5117 0.608365 31.9999 0.549962L31.0899 0.469962C30.8322 0.460632 30.5752 0.437264 30.3199 0.399962C25.6063 -0.155456 20.8436 -0.155456 16.1299 0.399962C11.835 0.824226 7.61121 1.79196 3.55995 3.27996C3.29995 3.37996 3.01995 3.46996 2.73995 3.55996H2.63995C2.28995 3.66996 1.97995 3.77996 1.69995 3.89996C1.10327 4.1191 0.596591 4.53078 0.259948 5.06996C0.0433235 5.44136 -0.0478492 5.87267 -5.20973e-05 6.29996L0.499948 10.73H1.41995C2.52193 10.7357 3.58333 11.1464 4.40207 11.884C5.22081 12.6216 5.7397 13.6345 5.85995 14.73C5.98848 15.8284 5.70619 16.9355 5.06742 17.8383C4.42865 18.7411 3.47853 19.3757 2.39995 19.62L1.51995 19.82L1.96995 23.82C2.00024 24.1218 2.09882 24.4129 2.25821 24.671C2.4176 24.9291 2.63363 25.1476 2.88995 25.31C3.28529 25.5448 3.73096 25.682 4.18995 25.71L4.89995 25.76C5.10995 25.76 5.35995 25.76 5.59995 25.81C8.08968 26.0965 10.5938 26.2401 13.0999 26.24C15.4053 26.2433 17.7089 26.1164 19.9999 25.86C24.4056 25.3636 28.7363 24.3431 32.8999 22.82L33.6399 22.58C33.9299 22.5 34.1699 22.42 34.3999 22.34C34.8883 22.1887 35.3269 21.909 35.6699 21.53C35.8476 21.3202 35.9802 21.0761 36.0594 20.8129C36.1385 20.5496 36.1625 20.2729 36.1299 20ZM15.3099 17.08L14.5399 10.19C14.5261 10.0183 14.5568 9.84591 14.6291 9.68957C14.7014 9.53324 14.8129 9.39823 14.9527 9.29764C15.0925 9.19704 15.256 9.13427 15.4272 9.11541C15.5984 9.09654 15.7716 9.12222 15.9299 9.18996L22.2799 11.96C22.4403 12.0307 22.5793 12.1423 22.683 12.2836C22.7866 12.4249 22.8513 12.591 22.8706 12.7652C22.8898 12.9394 22.8629 13.1156 22.7926 13.2762C22.7223 13.4367 22.611 13.576 22.4699 13.68L16.8999 17.77C16.7589 17.8748 16.5927 17.9405 16.4181 17.9607C16.2435 17.9808 16.0667 17.9546 15.9055 17.8846C15.7443 17.8146 15.6043 17.7034 15.4998 17.5622C15.3952 17.4209 15.3298 17.2546 15.3099 17.08Z" fill="white"/>
</svg>
