<svg width="38" height="30" viewBox="0 0 38 30" fill="none" xmlns="http://www.w3.org/2000/svg">
<path d="M3.88397 26.0346C3.63108 25.8693 3.45209 25.5973 3.41552 25.2719L3.06419 22.1463C5.76186 21.5439 7.61903 18.9809 7.30279 16.1675C6.98654 13.3541 4.60674 11.2674 1.84264 11.2788L1.44562 7.74676C1.41973 7.5165 1.46905 7.29864 1.57307 7.11384C1.72375 6.84615 2.00904 6.62492 2.52987 6.40562C2.78673 6.29747 3.0679 6.2029 3.38472 6.09977C3.41954 6.08843 3.45494 6.07695 3.49083 6.0653C3.76778 5.97546 4.07353 5.87628 4.36381 5.76407C6.45944 4.95402 10.5587 3.65783 16.6804 2.96973C23.2919 2.22657 28.2662 2.64189 30.6281 2.95228C30.9195 2.99058 31.2157 3.01119 31.4781 3.02945L31.5047 3.0313C31.7852 3.05085 32.0301 3.06855 32.2624 3.09993C32.7307 3.16319 33.0235 3.26848 33.2271 3.43486C33.4321 3.60226 33.5737 3.84593 33.6058 4.13182L33.9571 7.25739C31.2594 7.85988 29.4023 10.4228 29.7185 13.2362C30.0348 16.0497 32.4146 18.1363 35.1787 18.1249L35.5757 21.657C35.6091 21.9545 35.5168 22.2342 35.3406 22.4462C35.1785 22.6413 34.9224 22.7985 34.4952 22.9551C34.2829 23.0329 34.0576 23.1007 33.7978 23.1788L33.7965 23.1792C33.5479 23.254 33.2651 23.3391 32.9895 23.4419C30.777 24.2667 26.119 25.7845 20.3409 26.434C14.1076 27.1347 8.6177 26.6739 6.17051 26.3841C5.90397 26.3525 5.63724 26.3377 5.40298 26.325L5.37462 26.3234C5.14197 26.3109 4.94036 26.3 4.74552 26.2794C4.33883 26.2365 4.07639 26.1604 3.88397 26.0346Z" stroke="#746683" stroke-width="2"/>
<path d="M22.7208 13.4947C23.4263 13.8028 23.5338 14.759 22.9143 15.216L17.3388 19.3286C16.7193 19.7855 15.8374 19.4005 15.7514 18.6355L14.9775 11.7507C14.8915 10.9857 15.6659 10.4145 16.3714 10.7225L22.7208 13.4947Z" fill="#746683"/>
</svg>
