<svg width="27" height="27" viewBox="0 0 27 27" fill="none" xmlns="http://www.w3.org/2000/svg">
<circle cx="13.5" cy="7.5" r="6.5" fill="#FF4057" fill-opacity="0.4" stroke="#FF4057" stroke-width="2"/>
<path d="M26 21.6301C26 22.5871 25.7061 23.2677 25.2104 23.7951C24.6907 24.3481 23.8834 24.8008 22.7537 25.1461C20.4726 25.8433 17.24 26 13.5 26C9.75996 26 6.52744 25.8433 4.24635 25.1461C3.11663 24.8008 2.30929 24.3481 1.78957 23.7951C1.2939 23.2677 1 22.5871 1 21.6301C1 19.7053 2.22212 17.8218 4.49268 16.3703C6.7519 14.926 9.93375 14 13.5 14C17.0662 14 20.2481 14.926 22.5073 16.3703C24.7779 17.8218 26 19.7053 26 21.6301Z" fill="#FF4057" fill-opacity="0.4" stroke="#FF4057" stroke-width="2"/>
</svg>
