<svg width="18" height="18" viewBox="0 0 18 18" fill="none" xmlns="http://www.w3.org/2000/svg">
<path d="M14.1162 15.8839C14.6044 16.3721 15.3958 16.372 15.8839 15.8838C16.3721 15.3956 16.372 14.6042 15.8838 14.1161L12.1977 10.4304C12.1616 10.3943 12.1238 10.3609 12.0846 10.3301C12.6295 9.46664 12.9447 8.44382 12.9447 7.34736C12.9447 4.25602 10.4387 1.75 7.34736 1.75C4.25602 1.75 1.75 4.25602 1.75 7.34736C1.75 10.4387 4.25602 12.9447 7.34736 12.9447C8.44356 12.9447 9.46616 12.6296 10.3295 12.085C10.3603 12.1243 10.3938 12.1621 10.43 12.1983L14.1162 15.8839Z" stroke="white" stroke-width="2.5" stroke-linecap="round" stroke-linejoin="round"/>
</svg>
