<svg width="31" height="31" viewBox="0 0 31 31" fill="none" xmlns="http://www.w3.org/2000/svg">
<path d="M16.4919 2.625H16.4921C17.5748 2.62516 18.4984 3.33107 18.8402 4.32273L18.8403 4.32286L19.4689 6.14715C19.469 6.1474 19.4691 6.14766 19.4691 6.14791C19.475 6.16418 19.4822 6.16961 19.4822 6.16965L21.334 7.2835L23.146 6.94293C23.1463 6.94286 23.1467 6.9428 23.147 6.94273C24.2131 6.74123 25.2547 7.26551 25.7671 8.18959C25.7673 8.18991 25.7674 8.19023 25.7676 8.19054L26.758 9.97054C27.2665 10.8835 27.1744 12.0278 26.5142 12.8447L26.5124 12.8468L25.3087 14.3297L25.308 14.3304C25.3029 14.3368 25.2944 14.3529 25.2944 14.3767V16.6233C25.2944 16.6471 25.3029 16.6632 25.308 16.6696L25.3086 16.6703L26.5124 18.1531L26.5141 18.1552C27.1743 18.972 27.2664 20.1161 26.7582 21.029C26.7581 21.0291 26.758 21.0293 26.758 21.0294L25.7674 22.8096C25.7672 22.8101 25.767 22.8105 25.7667 22.8109C25.2544 23.7341 24.2138 24.258 23.1483 24.0572L21.3352 23.7164L19.4833 24.8303C19.4828 24.8308 19.4759 24.8365 19.4703 24.8521C19.4702 24.8523 19.4702 24.8526 19.4701 24.8528L18.8415 26.6771L18.8414 26.6772C18.4994 27.6697 17.5745 28.3759 16.4908 28.375M16.4919 2.625L9.65164 23.7078L9.65167 23.7078M16.4919 2.625L14.5083 2.625V2.62494L14.4964 2.62506C13.4224 2.63531 12.5102 3.33883 12.1711 4.32278C12.171 4.32312 12.1708 4.32345 12.1707 4.32379L11.5426 6.14679C11.5425 6.14705 11.5424 6.14731 11.5423 6.14756C11.5362 6.16445 11.5286 6.17055 11.5279 6.1711L9.67729 7.2835M16.4919 2.625L9.67729 7.2835M16.4908 28.375L16.4919 27.125V28.375H16.4908ZM16.4908 28.375H14.5083H14.5081C13.4254 28.3748 12.5018 27.6689 12.1599 26.6773L12.1599 26.6771L11.5314 24.8532L12.7119 24.4422L11.5301 24.8494L11.5311 24.8525C11.5248 24.8348 11.5167 24.8289 11.5167 24.8289L9.66613 23.7165M9.66613 23.7165L9.68657 23.7127C9.6797 23.7139 9.67238 23.7139 9.66561 23.7127C9.65881 23.7114 9.65409 23.7093 9.65167 23.7078M9.66613 23.7165L7.8542 24.0571M9.66613 23.7165L9.65167 23.7078M9.65167 23.7078L7.8542 24.0571M7.8542 24.0571L7.62153 22.8289M7.8542 24.0571L9.67809 23.6638L9.6781 23.6638L9.68725 23.7125L9.68687 23.7126L9.67781 23.6643L9.6778 23.6643L9.45635 22.484L7.62153 22.8289M7.62153 22.8289L7.85244 24.0574L7.85358 24.0572M7.62153 22.8289C7.1063 22.9265 6.58777 22.6763 6.326 22.2038L5.33421 20.4212C5.07174 19.95 5.12134 19.3578 5.45818 18.941L6.66197 17.4582C6.85156 17.225 6.95567 16.9293 6.95579 16.6238M7.85358 24.0572L6.95579 16.6238M7.85358 24.0572C6.78743 24.2589 5.74575 23.7347 5.23323 22.8107C5.233 22.8103 5.23278 22.8099 5.23256 22.8095L4.24215 21.0295C4.24207 21.0293 4.24199 21.0292 4.24191 21.029L7.85358 24.0572ZM6.95579 16.6238V15.6263C6.26561 15.6263 5.70602 15.0669 5.70579 14.3767M6.95579 16.6238H5.70579V16.6234L5.70579 14.3767M5.70579 14.3767L5.70579 14.3763V14.3763C5.70579 14.3568 5.70623 14.3375 5.70711 14.3183C5.70725 14.3151 5.70741 14.3119 5.70758 14.3087C5.73265 13.8377 6.01853 13.4358 6.42344 13.245L5.47058 12.059M5.70579 14.3767C5.70578 14.3529 5.6973 14.3368 5.69212 14.3304L5.68756 14.3248L5.68757 14.3248L4.49839 12.8447L5.47058 12.059M5.47058 12.059C5.13373 11.6422 5.08413 11.05 5.3466 10.5788M5.47058 12.059L4.49614 12.8419L4.49706 12.8431C3.83813 12.0264 3.74647 10.8832 4.2543 9.97099L5.3466 10.5788M5.3466 10.5788L5.73058 9.88866C5.34127 9.6721 5.0884 9.25784 5.0884 8.79625L6.3384 8.79625L5.24506 8.19034L4.25455 9.97054L5.3466 10.5788ZM5.24592 8.1888L5.24609 8.18849C5.52296 7.69089 6.10115 7.4433 6.65234 7.58632C6.97706 7.67057 7.24406 7.87785 7.40864 8.1504C7.48286 8.15021 7.5578 8.15697 7.63269 8.17108L8.239 8.28505C8.29239 8.00103 8.4432 7.74161 8.66927 7.55402L5.24592 8.1888ZM5.24592 8.1888C5.75819 7.26593 6.79842 6.74212 7.86359 6.9426C7.86372 6.94262 7.86384 6.94264 7.86396 6.94267C7.86404 6.94268 7.86411 6.94269 7.86418 6.94271L9.67729 7.2835M5.24592 8.1888L9.67729 7.2835" fill="white" fill-opacity="0.1" stroke="white" stroke-width="2.5" stroke-linecap="round" stroke-linejoin="round"/>
<path d="M15.4999 18.6078C17.2165 18.6078 18.608 17.2162 18.608 15.4997C18.608 13.7831 17.2165 12.3916 15.4999 12.3916C13.7834 12.3916 12.3918 13.7831 12.3918 15.4997C12.3918 17.2162 13.7834 18.6078 15.4999 18.6078Z" stroke="white" stroke-width="2.5" stroke-linecap="round" stroke-linejoin="round"/>
</svg>
