<svg width="28" height="28" viewBox="0 0 28 28" fill="none" xmlns="http://www.w3.org/2000/svg">
<path d="M12.7438 10.0406C6.05767 10.7888 1.0035 16.3951 1 23.0673V23.8977C3.90582 20.4265 8.19495 18.3862 12.7438 18.3112V22.69C12.7438 23.6058 13.4924 24.3478 14.416 24.3478C14.7917 24.3478 15.1565 24.2223 15.4515 23.9916L26.3852 15.4306C27.085 14.8837 27.2053 13.8778 26.6537 13.1838C26.5751 13.0849 26.485 12.9955 26.3852 12.9175L15.4515 4.35655C14.7266 3.78924 13.6751 3.91214 13.1029 4.63105C12.8702 4.92355 12.7435 5.28526 12.7434 5.65787L12.7438 10.0406Z" fill="white"/>
</svg>
